<?xml version="1.0" encoding="utf-8"?>
<!-- Generator: Adobe Illustrator 24.3.0, SVG Export Plug-In . SVG Version: 6.00 Build 0)  -->
<svg version="1.1" id="Layer_1" xmlns="http://www.w3.org/2000/svg" xmlns:xlink="http://www.w3.org/1999/xlink" x="0px" y="0px"
	 viewBox="0 0 512 512" style="enable-background:new 0 0 512 512;" xml:space="preserve">
<style type="text/css">
	.st0{fill:#552448;}
</style>
<path id="XMLID_1_" class="st0" d="M264.58,306.23c-6.09,0-12.18-1.94-16.19-4.01l-1.94,2.91h-3.32l-0.69-19.65h3.32
	c2.91,9.13,8.58,17.57,19.51,17.57c8.44,0,12.73-4.57,12.73-10.66c0-4.57-3.74-8.72-9.13-10.79c-5.4-1.94-8.16-2.63-13.28-4.7
	c-7.06-2.91-11.35-7.33-11.35-14.94c0-8.86,8.86-15.5,19.23-15.5c5.81,0,10.52,1.8,14.53,4.01l1.8-2.77h3.32l0.42,19.1h-3.46
	c-2.63-8.72-6.37-17.16-17.16-17.16c-5.67,0-10.93,4.01-10.93,8.86c0,4.98,3.32,8.03,8.3,10.24c4.43,1.94,8.44,3.04,12.45,4.57
	c7.47,2.91,13.42,6.5,13.42,15.36C286.3,299.04,277.03,306.23,264.58,306.23 M47.33,289.49c0-10.66-9.82-14.11-16.74-15.08v-0.28
	c7.06-1.66,13.56-5.54,13.56-13.84c0-9.41-8.99-12.45-16.61-12.45H0.28v2.91c1.38,0.14,3.6,0.55,5.26,1.38
	c1.8,0.83,2.35,2.35,2.35,4.15v41.24c0,1.8-0.55,3.18-2.35,4.01c-1.11,0.42-4.15,0.83-5.54,0.97v2.91h27.95
	C37.09,304.99,47.33,300.14,47.33,289.49 M34.46,260.98c0,7.06-3.87,12.04-12.87,12.04h-5.12v-22c1.94-0.14,5.12-0.14,6.5-0.14
	C28.09,250.88,34.46,252.68,34.46,260.98 M37.36,287.97c0,6.78-2.63,13.84-12.45,13.84c-4.98,0-8.58-1.8-8.58-5.12v-20.2
	c1.52-0.14,4.98-0.14,7.75-0.14C32.8,276.34,37.36,281.18,37.36,287.97 M106.27,288.1h-2.91c-0.83,2.49-4.01,9.13-6.5,11.62
	c-1.94,2.08-6.64,1.94-10.93,1.94c-8.3,0-9.82-0.69-9.82-7.47v-17.16h5.4c4.98,0,6.09,1.38,7.06,2.49c0.97,1.25,2.21,4.84,2.35,7.33
	h3.04V264.3h-3.04c-0.28,2.21-1.25,5.4-2.35,6.78c-0.97,1.25-2.08,2.63-7.06,2.63h-5.4v-22.69H84c2.63,0,4.98,0.14,6.92,0.28
	c3.46,0.42,7.61,6.64,8.58,10.24h3.04V247.7H59.5v2.91c1.38,0.14,4.43,0.69,5.81,1.38c1.8,0.83,2.35,2.21,2.35,4.01v41.24
	c0,1.8-0.55,3.18-2.35,4.01c-0.97,0.28-4.57,0.69-5.81,0.83v2.91h45.66L106.27,288.1z M173.53,304.99v-2.91
	c-1.38-0.14-3.74-0.28-5.26-1.11c-1.8-0.97-3.6-2.21-6.09-5.4c-5.81-7.89-7.75-10.66-13.98-18.82c7.89-2.35,13.98-6.37,13.98-15.5
	c0-9.82-8.58-13.7-17.99-13.7h-26.57v2.91c1.38,0.14,4.01,0.55,5.4,0.97c1.8,0.69,2.35,2.35,2.35,4.29v41.51
	c0,1.8-0.55,3.46-2.35,4.15c-0.97,0.28-4.01,0.69-5.4,0.69v2.91h24.22v-2.91c-1.38-0.14-4.7-0.42-5.67-0.69
	c-1.8-0.69-2.35-2.35-2.35-4.15v-18.27h5.81c6.5,8.3,11.49,15.36,18.27,26.02H173.53z M152.22,262.23c0,8.3-5.54,13.28-13.01,13.28
	h-5.26v-24.63h6.92C147.1,251.02,152.22,254.34,152.22,262.23 M234.69,304.99v-2.91c-1.38-0.14-3.74-0.28-5.26-1.11
	c-1.8-0.97-4.15-2.63-6.5-5.4c-6.92-8.58-10.79-13.7-18.68-22.69c7.06-6.64,10.93-11.49,17.57-19.1c2.63-3.04,8.58-3.32,9.41-3.32
	v-2.77h-21.45v2.91c1.38,0.14,5.95,0.28,5.95,1.94c0,4.01-9.82,14.53-19.65,22.83h-0.69v-19.79c0-1.8,0.42-3.32,2.35-4.01
	c1.38-0.55,4.01-0.97,5.26-0.97v-2.91h-23.8v2.91c1.38,0.14,4.01,0.83,5.26,1.38c1.8,0.83,2.35,2.21,2.35,4.01v41.38
	c0,1.8-0.55,3.32-2.35,4.01c-0.97,0.28-3.87,0.55-5.26,0.69v2.91H203v-2.91c-1.38-0.14-4.43-0.69-5.26-1.11
	c-1.8-0.97-2.35-2.35-2.35-4.15V276.9h0.97c8.03,8.58,16.05,18.4,22.28,28.09H234.69z M356.05,304.99v-2.91
	c-1.38-0.14-4.29-0.55-5.26-1.11c-1.8-0.97-2.35-2.35-2.35-4.15v-41.24c0-1.8,0.55-3.32,2.35-4.01c1.38-0.55,3.87-0.97,5.26-0.97
	v-2.91h-23.8v2.91c1.38,0.14,4.01,0.83,5.26,1.38c1.8,0.83,2.35,2.21,2.35,4.01v17.44h-26.85v-17.85c0-1.8,0.42-3.32,2.21-4.01
	c1.38-0.55,3.87-0.97,5.26-0.97v-2.91h-23.8v2.91c1.38,0.14,4.01,0.83,5.26,1.38c1.8,0.83,2.35,2.21,2.35,4.01v41.38
	c0,1.8-0.55,3.32-2.35,4.01c-0.97,0.28-4.01,0.55-5.26,0.69v2.91h23.8v-2.91c-1.38-0.14-4.29-0.55-5.26-1.11
	c-1.8-0.97-2.21-2.35-2.21-4.15V276.9h26.85v20.48c0,1.8-0.55,3.32-2.35,4.01c-0.97,0.28-4.01,0.55-5.26,0.69v2.91H356.05z
	 M393.27,304.99v-2.91c-1.52-0.14-4.98-0.69-6.09-1.11c-1.94-0.97-2.63-2.21-2.63-4.01v-41.51c0-1.8,0.55-3.32,2.63-4.01
	c1.52-0.55,4.57-0.97,6.09-0.97v-2.77h-25.88v2.91c1.52,0.14,4.57,0.83,6.09,1.38c2.08,0.83,2.63,2.21,2.63,4.01v41.51
	c0,1.8-0.55,3.18-2.63,4.01c-1.11,0.28-4.57,0.55-6.09,0.69v2.91h25.88V304.99z M460.52,304.99v-2.91
	c-1.38-0.14-3.87-0.28-5.26-1.11c-1.8-0.97-3.6-2.21-6.09-5.4c-5.81-7.89-7.75-10.66-13.98-18.82c7.89-2.35,13.98-6.37,13.98-15.5
	c0-9.82-8.58-13.7-17.99-13.7h-26.43v2.91c1.38,0.14,4.01,0.55,5.4,0.97c1.8,0.69,2.35,2.35,2.35,4.29v41.51
	c0,1.8-0.55,3.46-2.35,4.15c-0.97,0.28-4.01,0.69-5.4,0.69v2.91h24.22v-2.91c-1.38-0.14-4.7-0.42-5.67-0.69
	c-1.8-0.69-2.35-2.35-2.35-4.15v-18.27h5.81c6.5,8.3,11.49,15.36,18.27,26.02H460.52z M439.35,262.23c0,8.3-5.54,13.28-13.01,13.28
	h-5.26v-24.63H428C434.23,251.02,439.35,254.34,439.35,262.23 M512,288.1h-2.91c-0.83,2.49-4.01,9.13-6.5,11.62
	c-1.94,2.08-6.64,1.94-10.93,1.94c-8.3,0-9.82-0.69-9.82-7.47v-17.16h5.4c4.98,0,6.09,1.38,7.06,2.49c0.97,1.25,2.21,4.84,2.35,7.33
	h3.04V264.3h-2.91c-0.28,2.21-1.25,5.4-2.35,6.78c-0.97,1.25-2.08,2.63-7.06,2.63h-5.4v-22.69h7.89c2.63,0,4.98,0.14,6.92,0.28
	c3.46,0.42,7.61,6.64,8.58,10.24h3.04V247.7h-43.17v2.91c1.38,0.14,4.43,0.69,5.81,1.38c1.8,0.83,2.35,2.21,2.35,4.01v41.24
	c0,1.8-0.55,3.18-2.35,4.01c-0.97,0.28-4.57,0.69-5.81,0.83v2.91h45.66L512,288.1z M83.3,379.43v-2.91
	c-1.25-0.14-4.15-0.55-5.12-1.11c-1.66-0.97-2.21-2.21-2.21-4.01V331c0-1.8,0.42-3.32,2.21-4.01c1.25-0.55,3.87-0.83,5.12-0.97
	v-2.91H60.06v2.91c1.25,0.14,4.01,0.83,5.26,1.38c1.66,0.83,2.21,2.21,2.21,4.01v17.02H41.24V331c0-1.8,0.42-3.32,2.21-4.01
	c1.38-0.55,3.87-0.83,5.12-0.97v-2.91H25.18v2.91c1.25,0.14,4.01,0.83,5.26,1.38c1.66,0.83,2.35,2.21,2.35,4.01v40.54
	c0,1.8-0.55,3.18-2.35,4.01c-0.83,0.28-3.87,0.55-5.26,0.69v2.91h23.25v-2.91c-1.25-0.14-4.15-0.55-5.12-1.11
	c-1.66-0.97-2.21-2.21-2.21-4.01v-19.51h26.29v20.06c0,1.8-0.55,3.18-2.21,4.01c-0.83,0.28-3.87,0.55-5.26,0.69v2.91H83.3V379.43z
	 M145.3,379.43v-2.91c-1.38-0.14-3.6-0.55-4.84-1.25c-1.66-1.25-2.63-2.49-3.46-4.43l-18.68-48.43h-3.18
	c-6.23,15.78-12.73,33.07-18.54,47.33c-1.25,3.04-2.49,4.29-4.15,5.4c-1.38,0.83-3.74,1.38-5.12,1.52v2.91h21.17v-2.91
	c-2.63-0.14-8.16-0.83-8.16-3.46c0-1.11,0.28-2.63,0.83-4.43c0.69-2.63,1.94-5.67,3.04-8.72h19.65l4.7,12.59
	c0.14,0.42,0.28,1.25,0.28,1.66c0,1.52-4.57,2.08-7.2,2.21v2.91L145.3,379.43L145.3,379.43z M122.6,356.46h-16.88l8.3-21.86
	L122.6,356.46z M192.07,338.47v-15.22h-48.99v15.22h2.77c0.83-3.6,5.12-11.35,8.58-11.9c1.94-0.28,5.12-0.28,6.5-0.28h2.21v45.39
	c0,1.8-0.55,3.32-2.49,4.01c-1.11,0.42-4.98,0.83-6.5,0.83v2.91h26.57v-2.91c-1.52-0.14-5.54-0.83-6.5-1.25
	c-1.8-0.83-2.49-2.35-2.49-4.15v-44.97h2.35c1.94,0,4.57,0.14,6.5,0.28c3.46,0.55,7.75,8.3,8.72,11.9h2.77V338.47z M257.52,379.43
	v-2.91c-1.25-0.14-4.15-0.55-5.12-1.11c-1.66-0.97-2.21-2.21-2.21-4.01V331c0-1.8,0.55-3.32,2.21-4.01
	c1.25-0.55,3.87-0.83,5.12-0.97v-2.91h-23.25v2.91c1.25,0.14,4.01,0.83,5.12,1.38c1.66,0.83,2.21,2.21,2.21,4.01v17.02h-26.29V331
	c0-1.8,0.42-3.32,2.21-4.01c1.38-0.55,3.87-0.83,5.12-0.97v-2.91H199.4v2.91c1.25,0.14,4.01,0.83,5.12,1.38
	c1.66,0.83,2.35,2.21,2.35,4.01v40.54c0,1.8-0.55,3.18-2.35,4.01c-0.83,0.28-3.87,0.55-5.12,0.69v2.91h23.25v-2.91
	c-1.25-0.14-4.15-0.55-5.12-1.11c-1.66-0.97-2.21-2.21-2.21-4.01v-19.51h26.29v20.06c0,1.8-0.55,3.18-2.21,4.01
	c-0.83,0.28-3.87,0.55-5.12,0.69v2.91h23.25V379.43z M319.52,379.43v-2.91c-1.38-0.14-3.6-0.55-4.84-1.25
	c-1.66-1.25-2.63-2.49-3.46-4.43l-18.68-48.43h-3.18c-6.23,15.78-12.73,33.07-18.54,47.33c-1.25,3.04-2.49,4.29-4.15,5.4
	c-1.38,0.83-3.74,1.38-5.12,1.52v2.91h21.17v-2.91c-2.63-0.14-8.16-0.83-8.16-3.46c0-1.11,0.28-2.63,0.83-4.43
	c0.69-2.63,1.8-5.67,3.04-8.72h19.65l4.7,12.59c0.14,0.42,0.28,1.25,0.28,1.66c0,1.52-4.57,2.08-7.2,2.21v2.91L319.52,379.43
	L319.52,379.43z M296.82,356.46h-16.88l8.3-21.86L296.82,356.46z M394.66,326.02v-2.91h-20.34v2.91c3.46,0.28,7.75,0.83,7.75,3.46
	c0,1.38-0.28,3.04-1.52,7.33c-1.8,6.92-4.43,16.61-8.3,29.61l-14.11-42.62h-3.87l-13.84,41.93c-5.26-18.27-9.13-31.55-10.1-35.56
	c-0.14-0.55-0.28-1.66-0.28-2.08c0-1.66,4.7-1.94,7.33-2.08v-2.91H314.4v2.91c1.38,0.14,3.46,0.55,4.7,1.38
	c1.66,1.11,2.49,2.21,2.91,4.01l13.84,48.71h3.46l14.81-43.17l14.25,43.17h3.6c5.26-17.16,11.35-36.95,14.53-47.46
	c0.83-2.63,1.94-4.01,3.74-5.12C391.33,326.71,393.41,326.16,394.66,326.02 M445.99,379.43v-2.91c-1.38-0.14-3.6-0.55-4.84-1.25
	c-1.66-1.25-2.63-2.49-3.46-4.43l-18.68-48.43h-3.18c-6.23,15.78-12.73,33.07-18.54,47.33c-1.25,3.04-2.49,4.29-4.15,5.4
	c-1.38,0.83-3.74,1.38-5.12,1.52v2.91h21.17v-2.91c-2.63-0.14-8.16-0.83-8.16-3.46c0-1.11,0.28-2.63,0.83-4.43
	c0.69-2.63,1.8-5.67,3.04-8.72h19.65l4.7,12.59c0.14,0.42,0.28,1.25,0.28,1.66c0,1.52-4.57,2.08-7.2,2.21v2.91L445.99,379.43
	L445.99,379.43z M423.44,356.46h-16.88l8.3-21.86L423.44,356.46z M494.01,326.02v-2.91H474.5v2.91c3.32,0.28,7.47,0.55,7.47,2.91
	c0,1.38-5.67,10.93-12.87,22.42c-7.2-13.01-12.32-22.28-12.32-23.39c0-1.8,4.84-1.66,7.33-1.8v-2.91h-23.94v2.91
	c1.25,0.14,3.32,0.55,4.57,1.25c1.8,1.11,2.91,2.49,4.57,5.4c3.46,5.95,6.5,11.62,10.24,19.1c1.25,2.49,2.63,5.12,2.63,6.09v13.56
	c0,1.94-0.55,3.46-2.49,4.15c-1.11,0.42-4.98,0.69-6.37,0.83v2.91h26.29v-2.91c-1.52-0.14-5.54-0.83-6.37-1.25
	c-1.8-0.83-2.63-2.21-2.63-4.15v-10.66c0-3.87,0.42-4.98,2.49-8.58c4.84-8.58,8.16-14.39,12.18-20.2c1.94-2.77,2.35-3.04,4.15-4.15
	C490.55,326.99,493.18,326.16,494.01,326.02 M245.48,434.23c-3.6,0-7.47-1.25-9.82-2.49l-1.11,1.8h-1.8l-0.42-12.18h1.8
	c1.8,6.09,4.84,10.79,11.76,10.79c5.26,0,7.61-2.49,7.61-6.37c0-3.04-1.94-5.4-5.54-6.92c-3.18-1.25-4.84-1.66-7.89-2.91
	c-4.29-1.8-6.78-4.57-6.78-9.27c0-5.54,5.26-9.69,11.49-9.69c3.46,0,6.37,1.11,8.72,2.49l1.11-1.66h1.8l0.28,11.9h-1.94
	c-1.66-5.54-3.46-10.52-10.38-10.52c-3.6,0-6.64,2.35-6.64,5.26c0,3.6,1.66,5.12,4.98,6.64c2.63,1.25,4.98,1.8,7.47,2.91
	c4.43,1.8,8.03,3.74,8.03,9.41C258.49,429.8,252.96,434.23,245.48,434.23 M111.95,433.54v-1.8c0.83,0,2.77-0.28,3.32-0.42
	c1.11-0.42,1.38-1.38,1.38-2.49V416.1H99.91v12.45c0,1.11,0.28,1.94,1.38,2.63c0.55,0.28,2.49,0.55,3.32,0.69v1.8H89.95v-1.94
	c0.83,0,2.77-0.28,3.32-0.42c1.11-0.42,1.52-1.38,1.52-2.49v-25.88c0-1.11-0.42-2.08-1.52-2.49c-0.83-0.42-2.49-0.83-3.32-0.83v-1.8
	h14.67v1.8c-0.83,0-2.35,0.28-3.32,0.55c-1.11,0.42-1.38,1.38-1.38,2.49v11.07h16.74v-10.79c0-1.11-0.42-2.08-1.38-2.49
	c-0.83-0.42-2.49-0.83-3.32-0.83v-1.8h14.67v1.8c-0.83,0-2.49,0.28-3.32,0.55c-1.11,0.42-1.38,1.38-1.38,2.49v25.74
	c0,1.11,0.42,1.94,1.38,2.63c0.55,0.28,2.49,0.55,3.32,0.69v1.8H111.95z M141.42,434.37c-6.37,0-11.9-5.12-11.9-13.15
	c0-7.75,4.84-13.28,12.32-13.28c7.33,0,12.04,5.54,12.04,12.87C153.74,428.14,149.31,434.37,141.42,434.37 M141.7,409.88
	c-5.54,0-7.06,5.95-7.06,10.93c0,6.23,2.08,11.62,7.06,11.62c4.7,0,6.78-5.26,6.78-11.49C148.48,415.41,146.82,409.88,141.7,409.88
	 M188.19,433.54v-1.66c0.97-0.14,1.52-0.14,2.21-0.28c0.97-0.28,1.38-1.11,1.38-2.21v-12.87c0-3.46-1.8-5.54-4.15-5.54
	c-3.74,0-5.67,2.63-6.37,3.74v14.39c0,1.11,0.42,1.94,1.38,2.35c0.69,0.28,1.38,0.42,2.21,0.55v1.66h-11.9v-1.66
	c0.97-0.14,1.38-0.14,2.08-0.28c0.97-0.28,1.38-1.11,1.38-2.21v-13.01c0-3.46-1.8-5.54-4.15-5.54c-3.74,0-5.67,2.63-6.37,3.74v14.25
	c0,1.11,0.42,1.94,1.38,2.35c0.83,0.42,1.38,0.42,2.35,0.55v1.66h-11.9v-1.66c0.97-0.14,1.52-0.14,2.21-0.28
	c0.97-0.28,1.38-1.11,1.38-2.21v-15.5c0-1.11-0.55-1.94-1.38-2.63c-0.55-0.42-1.66-0.69-2.63-0.69v-1.66l8.3-0.55l0.42,0.42v3.46
	h0.14c2.08-1.94,3.87-4.29,8.3-4.29c3.32,0,5.67,1.94,6.64,4.43c2.08-2.08,4.15-4.43,8.58-4.43c4.84,0,6.78,3.46,6.78,8.44v12.59
	c0,1.11,0.42,1.94,1.38,2.35c0.69,0.28,1.52,0.42,2.49,0.55v1.66H188.19z M215.87,434.23c-8.16,0-11.9-6.09-11.9-13.28
	c0-6.64,4.29-12.87,11.35-12.87c7.33,0,10.1,4.98,10.1,10.66v1.66h-16.47c0,6.37,2.49,11.07,8.3,11.07c3.6,0,5.26-1.8,7.06-4.84
	l1.8,1.11C224.03,431.6,220.44,434.23,215.87,434.23 M215.32,409.88c-3.46,0-6.09,3.04-6.37,8.3h11.49
	C220.44,414.03,219.47,409.88,215.32,409.88 M275.65,434.23c-8.16,0-11.9-6.09-11.9-13.28c0-6.64,4.29-12.87,11.35-12.87
	c7.33,0,10.1,4.98,10.1,10.66v1.66h-16.47c0,6.37,2.49,11.07,8.3,11.07c3.6,0,5.26-1.8,7.06-4.84l1.8,1.11
	C283.95,431.6,280.35,434.23,275.65,434.23 M275.1,409.88c-3.46,0-6.09,3.04-6.37,8.3h11.49
	C280.35,414.03,279.39,409.88,275.1,409.88 M305.4,415.14c-1.94,0-2.77-1.25-2.77-2.49c0-0.83,0.14-1.38,0.42-1.8
	c-2.63,0-4.84,2.63-5.54,3.74v14.53c0,1.11,0.42,1.94,1.38,2.21c0.83,0.42,2.35,0.42,3.32,0.55v1.66h-13.15v-1.66
	c0.97-0.14,1.52-0.14,2.21-0.28c0.97-0.28,1.38-1.11,1.38-2.21v-15.36c0-0.97-0.55-2.21-1.38-2.77c-0.55-0.42-1.66-0.55-2.49-0.55
	v-1.66l8.3-0.55l0.42,0.42v3.46h0.14c2.21-2.91,4.84-4.15,6.92-4.15c2.08,0,3.6,1.38,3.6,3.87
	C308.17,413.61,307.2,415.14,305.4,415.14 M331.42,413.2c-2.08,4.98-4.01,9.13-6.37,14.81c-0.83,1.8-1.38,3.46-2.08,5.81h-1.94
	c-3.87-9.55-4.98-12.04-8.58-20.76c-0.69-1.52-1.38-2.49-2.77-2.63v-1.66h10.38v1.8c-1.25,0-3.04,0.28-3.04,1.11
	c0,0.14,0.28,0.55,0.42,1.11l5.95,14.67c1.25-2.91,3.32-7.89,5.26-12.59c0.28-0.83,0.69-1.8,0.69-2.49c0-1.25-2.63-1.8-3.46-1.94
	v-1.66h8.86v1.52C333.22,410.57,332.38,411.26,331.42,413.2 M337.09,433.54v-1.66c0.97-0.14,1.52-0.14,2.21-0.28
	c0.97-0.28,1.38-1.11,1.38-2.21v-15.36c0-1.11-0.55-2.08-1.38-2.63c-0.55-0.42-2.08-0.69-3.04-0.83v-1.66l8.72-0.55l0.42,0.42v20.2
	c0,1.11,0.42,1.94,1.38,2.35c0.83,0.28,1.38,0.42,2.21,0.55v1.66L337.09,433.54L337.09,433.54z M342.76,403.1
	c-1.52,0-2.77-1.38-2.77-2.91c0-1.66,1.25-3.04,2.77-3.04c1.8,0,2.91,1.52,2.91,3.04C345.67,401.85,344.56,403.1,342.76,403.1
	 M364.07,434.23c-7.61,0-11.49-5.67-11.49-13.28c0-6.78,4.57-13.01,11.76-13.01c5.54,0,8.3,2.91,8.3,6.5c0,1.66-0.69,3.18-2.63,3.18
	c-2.08,0-3.18-1.25-3.18-2.49c0-1.52,0.55-3.18,0.69-4.15c-0.69-0.97-1.94-1.25-3.32-1.25c-3.04,0-6.5,2.77-6.5,10.93
	c0,6.09,2.91,10.66,7.61,10.66c3.32,0,5.26-1.66,7.2-4.7l1.66,1.11C372.1,431.33,368.22,434.23,364.07,434.23 M389.26,434.23
	c-8.16,0-11.9-6.09-11.9-13.28c0-6.64,4.29-12.87,11.35-12.87c7.33,0,10.1,4.98,10.1,10.66v1.66h-16.47c0,6.37,2.49,11.07,8.3,11.07
	c3.6,0,5.26-1.8,7.06-4.84l1.8,1.11C397.56,431.6,393.82,434.23,389.26,434.23 M388.7,409.88c-3.46,0-6.09,3.04-6.37,8.3h11.49
	C393.96,414.03,392.99,409.88,388.7,409.88 M413.2,434.23c-2.91,0-5.54-1.38-6.64-2.21l-0.55,1.66h-1.8l-0.28-8.58h1.66
	c0.55,2.63,3.32,7.33,7.89,7.33c3.18,0,5.12-1.52,5.12-4.29c0-2.91-2.21-3.87-6.37-5.12c-3.46-0.97-7.61-2.91-7.61-7.61
	c0-4.15,3.32-7.33,8.3-7.33c2.08,0,4.29,0.55,5.54,1.25l0.55-1.38h1.8l0.42,8.03h-1.8c-0.55-3.04-2.77-6.09-6.5-6.09
	c-2.77,0-4.43,1.66-4.43,3.6c0,3.04,2.08,3.74,6.37,5.12c4.57,1.52,7.75,3.32,7.75,7.75C422.47,431.19,418.32,434.23,413.2,434.23
	 M256.69,77.63c-36.81,0-66.7,29.89-66.7,66.7s29.89,66.7,66.7,66.7s66.7-29.89,66.7-66.7C323.39,107.52,293.5,77.63,256.69,77.63
	 M256.69,207.71c-34.87,0-63.38-28.37-63.38-63.38c0-34.87,28.37-63.38,63.38-63.38c34.87,0,63.38,28.37,63.38,63.38
	C320.07,179.2,291.7,207.71,256.69,207.71 M306.92,160.38c0.97,0,1.8-0.83,1.8-1.94c0-0.97-0.83-1.8-1.8-1.8
	c-0.97,0-1.94,0.83-1.94,1.8C305.12,159.55,305.95,160.38,306.92,160.38 M206.6,160.38c0.97,0,1.8-0.83,1.8-1.8
	c0-0.97-0.83-1.8-1.8-1.8s-1.8,0.83-1.8,1.8C204.66,159.55,205.49,160.38,206.6,160.38 M208.26,145.85l-6.92-0.14l0.14-3.74
	c0-1.38,0.83-1.94,1.8-1.94c0.83,0,1.38,0.55,1.52,1.25c0.14-0.69,0.83-1.38,1.8-1.25c1.11,0,1.94,0.69,1.8,2.08L208.26,145.85z
	 M203.42,141.56c-0.42,0-0.69,0.28-0.69,0.83v1.8h1.52v-1.8C204.11,141.98,203.83,141.56,203.42,141.56 M206.18,141.56
	c-0.42,0-0.83,0.28-0.83,0.83v1.94h1.52v-1.94C207.01,141.84,206.74,141.56,206.18,141.56 M208.81,136.44l-6.78-1.52l0.97-4.84
	l1.25,0.28l-0.69,3.32l1.38,0.28l0.69-3.32l1.25,0.28l-0.69,3.32l1.52,0.28l0.69-3.32l1.25,0.28L208.81,136.44z M212.55,124.54
	l-2.77,0.28l-0.42,0.97l2.35,0.97l-0.55,1.38l-6.5-2.63l1.25-3.04c0.55-1.38,1.8-1.8,3.04-1.25c1.11,0.42,1.38,1.52,1.38,2.21
	l3.04-0.42L212.55,124.54z M208.12,122.46c-0.55-0.28-0.97,0-1.25,0.55l-0.55,1.38l1.8,0.69l0.55-1.38
	C208.95,123.3,208.67,122.74,208.12,122.46 M217.12,116.38l-3.46,0.28l0.28,0.83l1.8,1.25l-0.83,1.25l-5.81-3.87l0.83-1.25
	l2.63,1.66l-1.25-3.74l0.97-1.52l1.25,4.15l4.7-0.42L217.12,116.38z M219.05,112.22l-0.28-1.38c0.69,0,1.52-0.28,2.21-0.97
	c0.55-0.55,0.55-1.11,0.28-1.38c-0.83-0.83-3.04,2.63-4.98,0.83c-0.83-0.83-0.83-2.21,0.28-3.32c0.83-0.83,1.66-1.25,2.63-1.25
	l0.28,1.38c-0.83,0-1.52,0.42-1.94,0.97c-0.42,0.42-0.55,0.83-0.14,1.25c0.83,0.69,3.04-2.63,4.98-0.83
	c0.97,0.83,0.97,2.21-0.28,3.6C220.99,111.81,220.02,112.09,219.05,112.22 M230.26,103.65l-1.66-2.35l-2.63,1.94l1.66,2.35
	l-1.25,0.83l-4.01-5.67l1.25-0.83l1.52,2.21l2.77-1.94l-1.52-2.21l1.25-0.83l4.01,5.67L230.26,103.65z M234.97,101.02l-3.04-6.23
	l1.38-0.69l3.04,6.23L234.97,101.02z M243.68,97.56l-2.08-1.94l-1.11,0.28l0.69,2.35l-1.38,0.42l-2.08-6.64l3.18-0.97
	c1.38-0.42,2.49,0.28,2.91,1.52c0.42,1.11-0.14,2.08-0.83,2.49l2.35,2.08L243.68,97.56z M242.44,92.99
	c-0.14-0.55-0.69-0.69-1.25-0.55l-1.52,0.42l0.55,1.8l1.52-0.42C242.3,94.1,242.58,93.68,242.44,92.99 M248.8,96.45l-0.83-6.92
	l4.84-0.55l0.14,1.25l-3.46,0.42l0.14,1.52l3.32-0.42l0.14,1.25l-3.32,0.42l0.14,1.52l3.46-0.42l0.14,1.25L248.8,96.45z
	 M267.21,96.86l0.55-2.91l-3.18-0.55l-0.55,2.91l-1.52-0.28l1.25-6.92l1.52,0.28l-0.55,2.77l3.18,0.55l0.55-2.63l1.52,0.28
	l-1.25,6.92L267.21,96.86z M276.76,100.05V98.8l-2.77-1.11l-0.83,0.97l-1.52-0.69l5.12-5.4l1.66,0.69l-0.14,7.47L276.76,100.05z
	 M277.03,94.24l-2.08,2.35l2.08,0.83V94.24z M281.74,102.68l3.04-4.84l-1.66-1.11l0.69-1.11l4.7,2.91l-0.69,1.11l-1.66-1.11
	l-3.04,4.84L281.74,102.68z M290.87,109.73l1.94-2.21l-2.49-2.21l-1.94,2.21l-1.11-0.97l4.7-5.12l1.11,0.97l-1.8,2.08l2.49,2.21
	l1.8-2.08l1.11,0.97l-4.7,5.12L290.87,109.73z M297.24,117.48l0.69-1.11l-1.8-2.49l-1.25,0.28l-0.97-1.38l7.2-1.94l1.11,1.52
	l-4.15,6.23L297.24,117.48z M300.56,112.78l-3.04,0.83l1.25,1.8L300.56,112.78z M301.8,126.06l3.87-3.04l-4.84,0.83l-0.69-1.38
	l5.54-4.57l0.69,1.52l-4.15,3.18l5.12-0.83l0.42,1.11l-4.15,3.18l5.12-0.83l0.69,1.52l-7.2,0.97L301.8,126.06z M304.71,136.72
	l1.11-0.69l-0.55-2.91l-1.25-0.14l-0.28-1.66l7.33,1.25l0.42,1.8l-6.37,4.01L304.71,136.72z M309.69,133.81l-3.18-0.55l0.42,2.08
	L309.69,133.81z M305.26,142.67h2.91l4.01-2.77v1.66l-2.77,1.8l2.77,1.66v1.66l-4.15-2.63h-2.91L305.26,142.67z M211.17,176.16
	l2.49-1.66l-1.8-2.77l-2.49,1.66l-0.83-1.25l5.81-3.87l0.83,1.25l-2.35,1.52l1.8,2.77l2.35-1.52l0.83,1.25L212,177.4L211.17,176.16z
	 M217.25,178.51c1.52-1.52,3.6-1.52,5.12,0c1.52,1.52,1.52,3.6,0,5.12s-3.6,1.52-5.12,0C215.87,182.24,215.73,180.03,217.25,178.51
	 M221.41,182.66c0.97-0.97,1.11-2.21,0.14-3.18c-0.97-0.97-2.21-0.83-3.18,0.14c-0.97,0.97-1.11,2.21-0.14,3.18
	C219.19,183.63,220.44,183.63,221.41,182.66 M228.6,192.35l2.77-4.29l-4.43,3.18l-0.55-0.42l1.11-5.26l-2.77,4.29l-1.25-0.83
	l3.74-5.81l1.8,1.11l-0.97,4.57l3.74-2.77l1.8,1.11l-3.74,5.81L228.6,192.35z M234.41,195.39l2.49-6.5l4.57,1.8l-0.42,1.25
	l-3.18-1.25l-0.55,1.38l3.18,1.25l-0.42,1.25l-3.18-1.25l-0.55,1.52l3.18,1.25l-0.42,1.25L234.41,195.39z M243.27,197.33l0.97-0.97
	c0.42,0.55,1.11,1.25,1.94,1.38c0.83,0.14,1.25-0.14,1.38-0.55c0.28-1.25-3.87-1.11-3.32-3.74c0.28-1.11,1.38-1.94,3.04-1.52
	c1.11,0.28,1.94,0.69,2.49,1.52l-0.97,0.97c-0.42-0.69-1.11-0.97-1.8-1.11c-0.55-0.14-0.97,0.14-1.11,0.55
	c-0.28,1.11,3.87,1.11,3.32,3.74c-0.28,1.25-1.38,2.08-3.18,1.66C244.65,198.71,243.82,198.16,243.27,197.33 M253.09,199.82
	l0.28-6.92l4.98,0.14v1.25l-3.46-0.14v1.52l3.32,0.14v1.25l-3.32-0.14v1.52l3.46,0.14v1.25H253.09z M266.79,199.13l-1.8-2.21
	l-1.11,0.14l0.42,2.49l-1.52,0.28l-1.11-6.92l3.18-0.55c1.38-0.28,2.49,0.55,2.63,1.8c0.14,1.25-0.42,1.94-1.25,2.35l1.94,2.35
	L266.79,199.13z M266.24,194.42c-0.14-0.55-0.55-0.83-1.11-0.69l-1.52,0.28l0.28,1.8l1.52-0.28
	C265.96,195.39,266.38,194.98,266.24,194.42 M274.54,197.05l-4.84-5.67l1.52-0.55l3.6,4.43v-5.67l1.52-0.55l-0.14,7.47
	L274.54,197.05z M282.29,193.73l-3.32-6.09l1.25-0.69l3.32,6.09L282.29,193.73z M285.2,188.06c-1.25-1.8-0.83-3.87,0.83-5.12
	c1.25-0.97,2.49-0.83,3.32-0.42l-0.69,1.25c-0.55-0.28-1.38-0.28-1.94,0.14c-0.97,0.83-1.25,2.08-0.42,3.18
	c0.83,1.11,2.08,1.25,3.18,0.55c0.55-0.42,0.83-1.11,0.69-1.8l1.38-0.28c0.14,0.97-0.14,2.21-1.25,3.18
	C288.66,189.99,286.58,189.86,285.2,188.06 M295.85,184.04l-5.12-4.7l3.32-3.6l0.97,0.83l-2.35,2.49l1.11,0.97l2.35-2.49l0.97,0.83
	l-2.35,2.49l1.11,1.11l2.35-2.49l0.97,0.83L295.85,184.04z M300.97,176.71l-0.55-1.38c0.69-0.14,1.52-0.55,2.08-1.38
	c0.42-0.69,0.42-1.25,0-1.38c-0.97-0.69-2.49,3.18-4.7,1.8c-0.97-0.69-1.25-1.94-0.28-3.32c0.55-0.97,1.38-1.52,2.35-1.8l0.42,1.25
	c-0.69,0.14-1.38,0.69-1.8,1.25c-0.28,0.55-0.28,0.97,0,1.25c0.97,0.55,2.49-3.18,4.7-1.8c1.11,0.69,1.38,1.94,0.42,3.6
	C302.77,175.88,301.8,176.43,300.97,176.71 M244.24,142.39h-11.49v-27.68h11.21c4.7,0,7.89,2.91,7.89,7.2c0,3.32-1.94,5.4-4.15,6.23
	c2.63,0.83,4.57,3.74,4.57,6.64C252.26,139.35,249.08,142.39,244.24,142.39 M236.49,138.93h7.06c3.04,0,4.7-1.66,4.7-4.43
	c0-2.21-1.52-4.43-4.7-4.43h-7.06V138.93z M236.49,126.48h6.78c2.77,0,4.43-1.52,4.43-4.15c0-2.49-1.8-4.15-4.43-4.15h-6.78V126.48z
	 M281.18,142.39h-3.87v-12.45h-14.39v12.45h-3.87v-27.68h3.87v11.62h14.39v-11.62h3.87V142.39z M254.75,175.33h-3.87v-12.45h-14.39
	v12.45h-3.87v-27.68h3.87v11.62h14.39v-11.62h3.87V175.33z M270.94,175.74c-4.29,0-8.03-1.52-10.66-4.43l-0.14-0.14l2.35-3.04
	l0.14,0.28c0.97,1.11,3.74,3.87,8.3,3.87s6.09-2.35,6.09-4.43c0-3.04-3.18-3.87-6.92-4.84c-4.29-1.11-9.13-2.49-9.13-7.89
	c0-4.57,4.01-7.75,9.55-7.75c4.01,0,7.33,1.38,9.82,3.87l0.14,0.14l-2.35,2.91l-0.14-0.28c-2.35-2.63-5.54-3.18-7.61-3.18
	c-3.18,0-5.4,1.66-5.4,4.01c0,2.49,2.91,3.32,6.37,4.15c4.57,1.25,9.69,2.63,9.69,8.58C281.18,171.45,278.56,175.74,270.94,175.74"
	/>
</svg>
